<svg width="80" height="80" viewBox="0 0 80 80" fill="none" xmlns="http://www.w3.org/2000/svg">
<path fill-rule="evenodd" clip-rule="evenodd" d="M0 40C0 17.9086 17.9086 0 40 0C62.0914 0 80 17.9086 80 40C80 62.0914 62.0914 80 40 80C17.9086 80 0 62.0914 0 40ZM59.3016 24.4815C60.1402 25.2004 60.2374 26.463 59.5185 27.3016L35.5185 55.3016C35.156 55.7246 34.6334 55.9772 34.0768 55.9986C33.5201 56.0199 32.9797 55.8082 32.5858 55.4142L20.5858 43.4142C19.8047 42.6332 19.8047 41.3669 20.5858 40.5858C21.3668 39.8048 22.6332 39.8048 23.4142 40.5858L33.887 51.0586L56.4815 24.6985C57.2003 23.8598 58.4629 23.7627 59.3016 24.4815Z" fill="#00AF43"/>
</svg>
