<svg width="32" height="33" viewBox="0 0 32 33" fill="none" xmlns="http://www.w3.org/2000/svg">
<path fill-rule="evenodd" clip-rule="evenodd" d="M16 1.83337C7.89983 1.83337 1.33334 8.39986 1.33334 16.5C1.33334 24.6002 7.89983 31.1667 16 31.1667C24.1002 31.1667 30.6667 24.6002 30.6667 16.5C30.6667 8.39986 24.1002 1.83337 16 1.83337ZM22.9428 13.4428C23.4635 12.9221 23.4635 12.0779 22.9428 11.5572C22.4221 11.0365 21.5779 11.0365 21.0572 11.5572L14 18.6144L10.9428 15.5572C10.4221 15.0365 9.5779 15.0365 9.0572 15.5572C8.5365 16.0779 8.5365 16.9221 9.0572 17.4428L13.0572 21.4428C13.5779 21.9635 14.4221 21.9635 14.9428 21.4428L22.9428 13.4428Z" fill="#16CB3E"/>
</svg>
