<svg width="269" height="196" viewBox="0 0 269 196" fill="none" xmlns="http://www.w3.org/2000/svg">
<path d="M266.194 117.648C285.752 170.261 189.138 209.083 123.574 191.205C67.1101 191.205 15.8467 117.648 0 65.0354C22.4921 -24.8665 59 0.256503 115.016 13.9548C169.5 27.2784 241.5 37.2784 266.194 117.648Z" fill="#F2F6FF"/>
<path d="M154.637 56.733H113.194C112.25 56.7341 111.345 57.1095 110.677 57.7767C110.009 58.4439 109.633 59.3486 109.632 60.2922V152.321L109.157 152.466L98.9909 155.577C98.5091 155.723 97.9887 155.673 97.5439 155.437C97.0992 155.201 96.7664 154.798 96.6186 154.317L66.3782 55.6201C66.231 55.1387 66.2812 54.6186 66.5176 54.1741C66.7541 53.7296 67.1575 53.3971 67.6392 53.2497L83.3056 48.4567L128.723 34.5663L144.389 29.7733C144.628 29.6999 144.878 29.6743 145.127 29.6979C145.375 29.7214 145.616 29.7937 145.837 29.9105C146.057 30.0273 146.252 30.1863 146.411 30.3786C146.57 30.5708 146.689 30.7925 146.762 31.0308L154.492 56.2584L154.637 56.733Z" fill="#F2F2F2"/>
<path d="M163.68 56.2585L154.363 25.8535C154.208 25.3468 153.955 24.8757 153.618 24.467C153.28 24.0583 152.866 23.72 152.398 23.4714C151.929 23.2229 151.417 23.0689 150.889 23.0184C150.361 22.9679 149.829 23.0217 149.322 23.1769L127.296 29.9133L81.8806 43.806L59.8546 50.5448C58.8314 50.8587 57.9747 51.5654 57.4724 52.5099C56.9702 53.4543 56.8635 54.5593 57.1758 55.5822L89.0168 159.494C89.2705 160.32 89.7823 161.043 90.4773 161.556C91.1723 162.07 92.0137 162.348 92.8782 162.349C93.2783 162.349 93.6762 162.289 94.0584 162.171L109.157 157.553L109.632 157.406V156.91L109.157 157.055L93.9183 161.717C93.0152 161.992 92.0397 161.898 91.2058 161.456C90.372 161.013 89.7479 160.258 89.4704 159.356L57.6319 55.4422C57.4944 54.9954 57.4465 54.5259 57.4909 54.0605C57.5353 53.5952 57.6711 53.1432 57.8906 52.7303C58.11 52.3175 58.4089 51.952 58.7699 51.6547C59.131 51.3575 59.5472 51.1343 59.9947 50.998L82.0207 44.2592L127.436 30.3689L149.462 23.6301C149.801 23.5266 150.154 23.4739 150.509 23.4735C151.271 23.4752 152.012 23.7206 152.624 24.1736C153.236 24.6266 153.686 25.2636 153.91 25.9911L163.183 56.2585L163.331 56.733H163.825L163.68 56.2585Z" fill="#697786"/>
<path d="M86.1325 53.3274C85.6748 53.327 85.2293 53.1802 84.8612 52.9083C84.4932 52.6364 84.222 52.2538 84.0875 51.8167L81.0287 41.8339C80.9466 41.5657 80.918 41.284 80.9448 41.0049C80.9716 40.7257 81.0531 40.4545 81.1848 40.2069C81.3165 39.9592 81.4957 39.7399 81.7123 39.5614C81.9288 39.383 82.1784 39.2489 82.4468 39.1668L124.228 26.386C124.77 26.2208 125.356 26.2771 125.856 26.5428C126.357 26.8084 126.731 27.2615 126.898 27.8028L129.956 37.7857C130.122 38.3272 130.065 38.9122 129.799 39.4122C129.534 39.9122 129.08 40.2865 128.539 40.4529L86.757 53.2336C86.5546 53.2957 86.3442 53.3273 86.1325 53.3274Z" fill="#0051FF"/>
<path d="M102.156 33.6649C104.779 33.6649 106.905 31.5402 106.905 28.9193C106.905 26.2984 104.779 24.1737 102.156 24.1737C99.5327 24.1737 97.4062 26.2984 97.4062 28.9193C97.4062 31.5402 99.5327 33.6649 102.156 33.6649Z" fill="#0051FF"/>
<path d="M102.156 31.9243C103.817 31.9243 105.163 30.5789 105.163 28.9192C105.163 27.2596 103.817 25.9142 102.156 25.9142C100.495 25.9142 99.1481 27.2596 99.1481 28.9192C99.1481 30.5789 100.495 31.9243 102.156 31.9243Z" fill="white"/>
<path d="M200.111 161.136H119.844C119.309 161.135 118.796 160.923 118.417 160.545C118.039 160.166 117.826 159.654 117.825 159.119V63.0209C117.826 62.4862 118.039 61.9735 118.417 61.5954C118.796 61.2173 119.309 61.0046 119.844 61.004H200.111C200.646 61.0046 201.159 61.2173 201.538 61.5954C201.916 61.9735 202.129 62.4862 202.13 63.0209V159.119C202.129 159.654 201.916 160.166 201.538 160.545C201.159 160.923 200.646 161.135 200.111 161.136Z" fill="#E6E6E6"/>
<path d="M163.183 56.2584H113.194C112.124 56.2599 111.098 56.6854 110.341 57.4416C109.585 58.1977 109.159 59.2228 109.157 60.2922V157.055L109.632 156.91V60.2922C109.633 59.3486 110.009 58.4439 110.677 57.7767C111.345 57.1095 112.25 56.7341 113.194 56.733H163.331L163.183 56.2584ZM206.76 56.2584H113.194C112.124 56.2599 111.098 56.6854 110.341 57.4416C109.585 58.1977 109.159 59.2228 109.157 60.2922V168.966C109.159 170.036 109.585 171.061 110.341 171.817C111.098 172.573 112.124 172.998 113.194 173H206.76C207.831 172.998 208.857 172.573 209.613 171.817C210.37 171.061 210.796 170.036 210.797 168.966V60.2922C210.796 59.2228 210.37 58.1977 209.613 57.4416C208.857 56.6854 207.831 56.2599 206.76 56.2584ZM210.323 168.966C210.321 169.91 209.946 170.814 209.278 171.482C208.61 172.149 207.705 172.524 206.76 172.525H113.194C112.25 172.524 111.345 172.149 110.677 171.482C110.009 170.814 109.633 169.91 109.632 168.966V60.2922C109.633 59.3486 110.009 58.4439 110.677 57.7767C111.345 57.1095 112.25 56.7341 113.194 56.733H206.76C207.705 56.7341 208.61 57.1095 209.278 57.7767C209.946 58.4439 210.321 59.3486 210.323 60.2922V168.966Z" fill="#697786"/>
<path d="M181.825 66.6988H138.13C137.563 66.6981 137.02 66.4729 136.619 66.0726C136.218 65.6722 135.993 65.1294 135.992 64.5632V54.1229C135.993 53.5568 136.218 53.014 136.619 52.6136C137.02 52.2133 137.563 51.9881 138.13 51.9874H181.825C182.392 51.9881 182.935 52.2133 183.336 52.6136C183.737 53.014 183.962 53.5568 183.963 54.1229V64.5632C183.962 65.1294 183.737 65.6722 183.336 66.0726C182.935 66.4729 182.392 66.6981 181.825 66.6988Z" fill="#0051FF"/>
<path d="M159.977 52.6993C162.6 52.6993 164.727 50.5746 164.727 47.9537C164.727 45.3327 162.6 43.2081 159.977 43.2081C157.354 43.2081 155.228 45.3327 155.228 47.9537C155.228 50.5746 157.354 52.6993 159.977 52.6993Z" fill="#0051FF"/>
<path d="M159.977 50.8442C161.575 50.8442 162.87 49.5501 162.87 47.9537C162.87 46.3574 161.575 45.0632 159.977 45.0632C158.38 45.0632 157.084 46.3574 157.084 47.9537C157.084 49.5501 158.38 50.8442 159.977 50.8442Z" fill="white"/>
</svg>
