<svg width="18" height="12" viewBox="0 0 18 12" fill="none" xmlns="http://www.w3.org/2000/svg">
<path d="M17.875 5.5625C17.9375 5.6875 17.9688 5.84375 17.9688 6.03125C17.9688 6.1875 17.9375 6.34375 17.875 6.46875C16.1875 9.78125 12.8125 12 9 12C5.15625 12 1.78125 9.78125 0.09375 6.46875C0.03125 6.34375 0 6.1875 0 6C0 5.84375 0.03125 5.6875 0.09375 5.5625C1.78125 2.25 5.15625 0 9 0C12.8125 0 16.1875 2.25 17.875 5.5625ZM9 10.5V10.5312C11.4688 10.5312 13.5 8.5 13.5 6.03125V6C13.5 3.53125 11.4688 1.5 9 1.5C6.5 1.5 4.5 3.53125 4.5 6C4.5 8.5 6.5 10.5 9 10.5ZM9 3V3.03125C10.6562 3.03125 12 4.34375 12 6C12 7.65625 10.6562 9 9 9C7.34375 9 6 7.65625 6 6C6 5.75 6.03125 5.46875 6.09375 5.21875C6.34375 5.40625 6.65625 5.5 7 5.5C7.8125 5.5 8.46875 4.84375 8.46875 4.03125C8.46875 3.6875 8.375 3.375 8.1875 3.125C8.4375 3.0625 8.71875 3.03125 9 3Z" fill="white"/>
</svg>
