<svg width="48" height="48" viewBox="0 0 48 48" fill="none" xmlns="http://www.w3.org/2000/svg">
<g opacity="0.7">
<path d="M20.9421 28.7796C23.2179 28.7796 25.0697 26.9278 25.0697 24.6521V16.7032C25.0697 16.1122 24.5907 15.6333 23.9998 15.6333C23.4088 15.6333 22.9299 16.1122 22.9299 16.7032V24.6521C22.9299 25.7481 22.0387 26.6393 20.9427 26.6393C20.3517 26.6393 19.8728 27.1182 19.8728 27.7092C19.8723 28.3006 20.3512 28.7796 20.9421 28.7796Z" fill="white"/>
<path d="M11.9995 17.4711V20.5282C11.9995 21.2455 12.5814 21.8274 13.2987 21.8274C14.0161 21.8274 14.5979 21.2455 14.5979 20.5282V17.4711C14.5979 16.7537 14.0161 16.1719 13.2987 16.1719C12.5814 16.1719 11.9995 16.7537 11.9995 17.4711Z" fill="white"/>
<path d="M34.7001 21.8279C35.4174 21.8279 35.9993 21.246 35.9993 20.5287V17.4716C35.9993 16.7542 35.4174 16.1724 34.7001 16.1724C33.9828 16.1724 33.4009 16.7542 33.4009 17.4716V20.5287C33.4009 21.246 33.9828 21.8279 34.7001 21.8279Z" fill="white"/>
<path d="M33.1658 34.0804C32.7882 33.626 32.1135 33.5636 31.6591 33.9417C27.0494 37.7733 20.3576 37.7733 15.748 33.9417C15.2936 33.5641 14.6189 33.6265 14.2413 34.0804C13.8637 34.5348 13.9255 35.2095 14.3805 35.5871C17.0819 37.8325 20.3928 38.9546 23.7043 38.9546C27.0153 38.9546 30.3268 37.8319 33.0282 35.5871C33.4815 35.2095 33.5439 34.5348 33.1658 34.0804Z" fill="white"/>
<path d="M1.07041 17.4268C1.66135 17.4268 2.14029 16.9478 2.14029 16.3569V11.0144C2.14029 6.12158 6.12113 2.14073 11.014 2.14073H16.357C16.9479 2.14073 17.4269 1.6618 17.4269 1.07086C17.4269 0.479915 16.9479 0.000976562 16.357 0.000976562H11.014C4.94085 0.000976562 0 4.94183 0 11.015V16.3574C0.000533339 16.9478 0.479472 17.4268 1.07041 17.4268Z" fill="white"/>
<path d="M46.9302 30.5732C46.3392 30.5732 45.8603 31.0522 45.8603 31.6431V36.9861C45.8603 41.879 41.8795 45.8598 36.9866 45.8598H31.6436C31.0527 45.8598 30.5737 46.3387 30.5737 46.9297C30.5737 47.5206 31.0527 47.9996 31.6436 47.9996H36.9866C43.0597 47.9996 48.0006 43.0587 48.0006 36.9856V31.6431C48.0001 31.0522 47.5211 30.5732 46.9302 30.5732Z" fill="white"/>
<path d="M16.3569 45.8598H11.0139C6.12109 45.8598 2.14024 41.879 2.14024 36.9861V31.6431C2.14024 31.0522 1.66131 30.5732 1.07037 30.5732C0.479427 30.5732 0.000488281 31.0522 0.000488281 31.6431V36.9861C0.000488281 43.0592 4.94134 48.0001 11.0145 48.0001H16.3575C16.9484 48.0001 17.4273 47.5212 17.4273 46.9302C17.4268 46.3388 16.9479 45.8598 16.3569 45.8598Z" fill="white"/>
<path d="M36.9866 0H31.6436C31.0527 0 30.5737 0.478939 30.5737 1.06988C30.5737 1.66082 31.0527 2.13976 31.6436 2.13976H36.9866C41.8795 2.13976 45.8603 6.1206 45.8603 11.0135V16.3559C45.8603 16.9469 46.3392 17.4258 46.9302 17.4258C47.5211 17.4258 48.0001 16.9469 48.0001 16.3559V11.014C48.0001 4.94086 43.0592 0 36.9866 0Z" fill="white"/>
</g>
</svg>
