<svg width="17" height="18" viewBox="0 0 17 18" fill="none" xmlns="http://www.w3.org/2000/svg">
<path fill-rule="evenodd" clip-rule="evenodd" d="M0.557631 0.766957C0.644123 0.602775 0.81443 0.5 1 0.5H16C16.1856 0.5 16.3559 0.602775 16.4424 0.766957C16.5289 0.931139 16.5173 1.12972 16.4124 1.28276L10.5 9.90496V15C10.5 15.1672 10.4165 15.3233 10.2774 15.416L7.27735 17.416C7.12392 17.5183 6.92665 17.5278 6.76407 17.4408C6.60149 17.3538 6.5 17.1844 6.5 17V9.90496L0.587637 1.28276C0.482691 1.12972 0.471139 0.931139 0.557631 0.766957ZM1.94912 1.5L3.32055 3.5H13.6795L15.0509 1.5H1.94912ZM7.41237 9.46723L4.00626 4.5H12.9937L9.58764 9.46723C9.53055 9.55048 9.5 9.64906 9.5 9.75V14.7324L7.5 16.0657V9.75C7.5 9.64906 7.46945 9.55048 7.41237 9.46723Z" fill="#0051FF"/>
</svg>
