<svg width="16" height="16" viewBox="0 0 16 16" fill="none" xmlns="http://www.w3.org/2000/svg">
<path d="M11.2423 5.44106C11.3741 5.55402 11.3893 5.75242 11.2764 5.8842L7.26433 10.5649C7.20736 10.6314 7.12525 10.6711 7.03778 10.6744C6.9503 10.6778 6.86539 10.6445 6.80349 10.5826L4.79747 8.57659C4.67474 8.45386 4.67474 8.25487 4.79747 8.13214C4.92021 8.00941 5.11919 8.00941 5.24193 8.13214L7.00797 9.89818L10.7991 5.47515C10.9121 5.34336 11.1105 5.3281 11.2423 5.44106Z" fill="#0051FF"/>
<path fill-rule="evenodd" clip-rule="evenodd" d="M1.36206 8.02003C1.36206 4.33813 4.34683 1.35336 8.02873 1.35336C11.7106 1.35336 14.6954 4.33813 14.6954 8.02003C14.6954 11.7019 11.7106 14.6867 8.02873 14.6867C4.34683 14.6867 1.36206 11.7019 1.36206 8.02003ZM8.02873 1.98192C4.69397 1.98192 1.99061 4.68527 1.99061 8.02003C1.99061 11.3548 4.69397 14.0581 8.02873 14.0581C11.3635 14.0581 14.0668 11.3548 14.0668 8.02003C14.0668 4.68527 11.3635 1.98192 8.02873 1.98192Z" fill="#0051FF"/>
</svg>
