<svg width="16" height="16" viewBox="0 0 16 16" fill="none" xmlns="http://www.w3.org/2000/svg">
<path d="M7.99998 7.33337C8.36817 7.33337 8.66665 7.63185 8.66665 8.00004V11.3334C8.66665 11.7016 8.36817 12 7.99998 12C7.63179 12 7.33331 11.7016 7.33331 11.3334V8.00004C7.33331 7.63185 7.63179 7.33337 7.99998 7.33337Z" fill="#0062E1"/>
<path d="M7.99998 6.00004C8.36817 6.00004 8.66665 5.70156 8.66665 5.33337C8.66665 4.96518 8.36817 4.66671 7.99998 4.66671C7.63179 4.66671 7.33331 4.96518 7.33331 5.33337C7.33331 5.70156 7.63179 6.00004 7.99998 6.00004Z" fill="#0062E1"/>
<path fill-rule="evenodd" clip-rule="evenodd" d="M1.33331 8.00004C1.33331 4.31814 4.31808 1.33337 7.99998 1.33337C11.6819 1.33337 14.6666 4.31814 14.6666 8.00004C14.6666 11.6819 11.6819 14.6667 7.99998 14.6667C4.31808 14.6667 1.33331 11.6819 1.33331 8.00004ZM7.99998 2.00004C4.68627 2.00004 1.99998 4.68633 1.99998 8.00004C1.99998 11.3137 4.68627 14 7.99998 14C11.3137 14 14 11.3137 14 8.00004C14 4.68633 11.3137 2.00004 7.99998 2.00004Z" fill="#0062E1"/>
</svg>
