<svg width="16" height="16" viewBox="0 0 16 16" fill="none" xmlns="http://www.w3.org/2000/svg">
<path d="M8.33337 5.00004C8.33337 4.81595 8.18414 4.66671 8.00004 4.66671C7.81595 4.66671 7.66671 4.81595 7.66671 5.00004V8.00004C7.66671 8.08845 7.70183 8.17323 7.76434 8.23574L10.7643 11.2357C10.8945 11.3659 11.1056 11.3659 11.2357 11.2357C11.3659 11.1056 11.3659 10.8945 11.2357 10.7643L8.33337 7.86197V5.00004Z" fill="#0051FF"/>
<path fill-rule="evenodd" clip-rule="evenodd" d="M8.00004 1.33337C4.31814 1.33337 1.33337 4.31814 1.33337 8.00004C1.33337 11.6819 4.31814 14.6667 8.00004 14.6667C11.6819 14.6667 14.6667 11.6819 14.6667 8.00004C14.6667 4.31814 11.6819 1.33337 8.00004 1.33337ZM2.00914 7.66671C2.17606 4.61839 4.61839 2.17606 7.66671 2.00914V2.66669C7.66671 2.85078 7.81595 3.00002 8.00004 3.00002C8.18414 3.00002 8.33337 2.85078 8.33337 2.66669V2.00914C11.3817 2.17606 13.824 4.61839 13.9909 7.66671H13.3334C13.1493 7.66671 13.0001 7.81595 13.0001 8.00004C13.0001 8.18414 13.1493 8.33337 13.3334 8.33337H13.9909C13.824 11.3817 11.3817 13.824 8.33337 13.9909V13.3334C8.33337 13.1493 8.18414 13 8.00004 13C7.81595 13 7.66671 13.1493 7.66671 13.3334V13.9909C4.61839 13.824 2.17606 11.3817 2.00914 8.33337H2.66671C2.8508 8.33337 3.00004 8.18414 3.00004 8.00004C3.00004 7.81595 2.8508 7.66671 2.66671 7.66671H2.00914Z" fill="#0051FF"/>
</svg>
