<svg width="16" height="16" viewBox="0 0 16 16" fill="none" xmlns="http://www.w3.org/2000/svg">
<path fill-rule="evenodd" clip-rule="evenodd" d="M4.97961 2C5.16371 2 5.31295 2.14924 5.31295 2.33333V2.66667H7.64628V2.33333C7.64628 2.14924 7.79552 2 7.97961 2C8.16371 2 8.31295 2.14924 8.31295 2.33333V2.66667H10.6463V2.33333C10.6463 2.14924 10.7955 2 10.9796 2C11.1637 2 11.3129 2.14924 11.3129 2.33333V2.66667H12.9796C13.2448 2.66667 13.4992 2.77202 13.6867 2.95956C13.8743 3.1471 13.9796 3.40145 13.9796 3.66667V6.21875C13.9927 6.25448 13.9998 6.29307 13.9998 6.33333V11.9308C14.0037 12.1985 13.9548 12.4643 13.856 12.7131C13.7569 12.9627 13.6094 13.1903 13.4221 13.3828C13.2348 13.5753 13.0113 13.7289 12.7644 13.8348C12.5176 13.9407 12.2523 13.9969 11.9837 14L11.9798 14L3.97206 14C3.43378 13.9874 2.9223 13.7625 2.54911 13.3744C2.17657 12.987 1.97202 12.4682 1.97983 11.9308L1.97961 3.66667C1.97961 3.40145 2.08497 3.1471 2.27251 2.95956C2.46004 2.77202 2.7144 2.66667 2.97961 2.66667H4.64628V2.33333C4.64628 2.14924 4.79552 2 4.97961 2ZM13.2153 3.43096C13.2778 3.49348 13.3129 3.57826 13.3129 3.66667V6H2.64628V3.66667C2.64628 3.57826 2.6814 3.49348 2.74391 3.43096C2.80642 3.36845 2.89121 3.33333 2.97961 3.33333H4.64628V4.33333C4.64628 4.51743 4.79552 4.66667 4.97961 4.66667C5.16371 4.66667 5.31295 4.51743 5.31295 4.33333V3.33333H7.64628V4.33333C7.64628 4.51743 7.79552 4.66667 7.97961 4.66667C8.16371 4.66667 8.31295 4.51743 8.31295 4.33333V3.33333H10.6463V4.33333C10.6463 4.51743 10.7955 4.66667 10.9796 4.66667C11.1637 4.66667 11.3129 4.51743 11.3129 4.33333V3.33333H12.9796C13.068 3.33333 13.1528 3.36845 13.2153 3.43096ZM3.02967 12.9123C2.77844 12.6511 2.64073 12.3011 2.6465 11.9386V6.66667H13.3332L13.3331 11.9333L13.3332 11.9386C13.336 12.1194 13.3031 12.2989 13.2364 12.467C13.1697 12.6351 13.0704 12.7883 12.9443 12.9179C12.8182 13.0475 12.6677 13.1509 12.5016 13.2222C12.3359 13.2932 12.158 13.331 11.9778 13.3333H3.98394C3.62291 13.324 3.28005 13.1727 3.02967 12.9123Z" fill="#0051FF"/>
</svg>
