<svg width="16" height="16" viewBox="0 0 16 16" fill="none" xmlns="http://www.w3.org/2000/svg">
<path fill-rule="evenodd" clip-rule="evenodd" d="M8.00004 1.33337C4.31814 1.33337 1.33337 4.31814 1.33337 8.00004C1.33337 11.6819 4.31814 14.6667 8.00004 14.6667C11.6819 14.6667 14.6667 11.6819 14.6667 8.00004C14.6667 4.31814 11.6819 1.33337 8.00004 1.33337ZM8.66671 5.33337C8.66671 5.70156 8.36823 6.00004 8.00004 6.00004C7.63185 6.00004 7.33337 5.70156 7.33337 5.33337C7.33337 4.96518 7.63185 4.66671 8.00004 4.66671C8.36823 4.66671 8.66671 4.96518 8.66671 5.33337ZM8.00004 7.33337C8.36823 7.33337 8.66671 7.63185 8.66671 8.00004V11.3334C8.66671 11.7016 8.36823 12 8.00004 12C7.63185 12 7.33337 11.7016 7.33337 11.3334V8.00004C7.33337 7.63185 7.63185 7.33337 8.00004 7.33337Z" fill="#0051FF"/>
</svg>
