<svg width="375" height="457" viewBox="0 0 375 457" fill="none" xmlns="http://www.w3.org/2000/svg">
<g clip-path="url(#clip0_11506_4517)">
<path opacity="0.05" d="M458.261 -159.54C457.519 -175.088 446.835 -188.458 431.373 -192.069C351.177 -208.655 269.519 -217.297 187.501 -218C105.477 -217.297 23.8194 -208.655 -56.371 -192.069C-71.8333 -188.458 -82.5172 -175.088 -83.2586 -159.54C-89.5451 -93.0205 -104.342 77.6233 -97.0045 146.322C-80.1306 301.067 31.7461 400.898 166.834 450.482C173.461 453.016 180.087 455.19 187.079 457C187.191 456.965 187.374 456.91 187.501 456.87C187.623 456.905 187.806 456.965 187.922 457C194.915 455.19 201.541 453.021 208.168 450.482C343.261 400.898 455.138 301.067 472.006 146.322C479.339 77.6233 464.547 -93.0205 458.261 -159.54Z" fill="#0051FF"/>
<path opacity="0.15" d="M428.092 -128.536C427.433 -142.357 417.94 -154.241 404.2 -157.45C332.94 -172.194 260.381 -179.875 187.501 -180.5C114.616 -179.875 42.0567 -172.194 -29.1989 -157.45C-42.9383 -154.241 -52.4319 -142.357 -53.0906 -128.536C-58.6767 -69.4076 -71.825 82.2758 -65.305 143.341C-50.3112 280.893 49.1001 369.631 169.136 413.706C175.025 415.958 180.913 417.89 187.126 419.5C187.225 419.469 187.388 419.42 187.501 419.384C187.609 419.415 187.771 419.469 187.875 419.5C194.088 417.89 199.977 415.962 205.865 413.706C325.906 369.631 425.317 280.893 440.306 143.341C446.822 82.2758 433.678 -69.4076 428.092 -128.536Z" fill="#0051FF"/>
<path opacity="0.2" d="M398.679 -98.1772C398.101 -110.307 389.768 -120.736 377.708 -123.553C315.16 -136.492 251.471 -143.233 187.502 -143.782C123.528 -143.233 59.8392 -136.492 -2.70491 -123.553C-14.7646 -120.736 -23.0975 -110.307 -23.6757 -98.1772C-28.5788 -46.2861 -40.1197 86.8318 -34.3968 140.423C-21.236 261.139 66.0215 339.016 171.382 377.696C176.551 379.673 181.719 381.369 187.173 382.781C187.26 382.754 187.403 382.711 187.502 382.68C187.597 382.707 187.739 382.754 187.83 382.781C193.284 381.369 198.452 379.676 203.621 377.696C308.986 339.016 396.243 261.139 409.4 140.423C415.119 86.8318 403.582 -46.2861 398.679 -98.1772Z" fill="#0051FF"/>
<path opacity="0.25" d="M366.244 -64.5891C365.755 -74.847 358.702 -83.6673 348.494 -86.0492C295.552 -96.9914 241.644 -102.693 187.498 -103.157C133.349 -102.693 79.4407 -96.9914 26.5016 -86.0492C16.2939 -83.6673 9.24077 -74.847 8.75134 -64.5891C4.60122 -20.705 -5.1673 91.8725 -0.323269 137.194C10.8163 239.284 84.6736 305.144 173.854 337.856C178.229 339.527 182.604 340.962 187.22 342.156C187.293 342.133 187.414 342.097 187.498 342.07C187.578 342.093 187.699 342.133 187.776 342.156C192.392 340.962 196.767 339.53 201.142 337.856C290.326 305.144 364.183 239.284 375.319 137.194C380.16 91.8725 370.395 -20.705 366.244 -64.5891Z" fill="#0051FF"/>
<path opacity="0.4" d="M333.289 -30.5439C332.889 -38.9048 327.137 -46.0939 318.811 -48.0353C275.629 -56.9539 231.659 -61.6009 187.496 -61.979C143.329 -61.6009 99.3598 -56.9539 56.1805 -48.0353C47.8547 -46.0939 42.1019 -38.9048 41.7027 -30.5439C38.3177 5.22443 30.3501 96.9823 34.3011 133.922C43.387 217.132 103.628 270.812 176.367 297.474C179.935 298.837 183.504 300.006 187.269 300.979C187.329 300.96 187.427 300.931 187.496 300.909C187.561 300.928 187.66 300.96 187.723 300.979C191.488 300.006 195.056 298.839 198.624 297.474C271.366 270.812 331.607 217.132 340.69 133.922C344.639 96.9823 336.674 5.22443 333.289 -30.5439Z" fill="#0051FF"/>
<path opacity="0.5" d="M295.969 8.0167C295.527 1.81343 291.409 -3.6153 285.196 -4.98062C253.16 -12.0119 220.355 -15.3403 187.495 -15.3403C154.635 -15.3403 121.829 -12.0119 89.793 -4.98062C83.5801 -3.61762 79.4618 1.81343 79.0201 8.0167C77.1225 34.644 70.5747 102.771 73.5125 130.217C80.2717 192.042 125.235 231.565 179.216 251.737C181.878 252.733 184.524 253.617 187.326 254.34C187.371 254.326 187.445 254.303 187.495 254.289C187.545 254.305 187.618 254.326 187.663 254.34C190.466 253.617 193.121 252.749 195.774 251.737C249.897 231.927 294.718 192.042 301.477 130.217C304.415 102.771 297.869 34.6417 295.969 8.0167Z" fill="#0051FF"/>
<path d="M259.496 45.5562C259.203 41.4329 256.47 37.8232 252.345 36.9167C231.077 32.2425 209.301 30.0298 187.488 30.0298C165.674 30.0298 143.896 32.2425 122.63 36.9167C118.506 37.8232 115.773 41.4329 115.479 45.5562C114.218 63.2559 109.874 108.538 111.824 126.782C116.311 167.876 146.158 194.147 181.994 207.556C183.759 208.216 185.518 208.807 187.379 209.288C187.41 209.279 187.457 209.265 187.49 209.253C187.523 209.262 187.571 209.279 187.602 209.288C189.462 208.807 191.223 208.23 192.987 207.556C228.915 194.389 258.669 167.878 263.156 126.782C265.107 108.538 260.76 63.2535 259.501 45.5562" fill="#0051FF"/>
</g>
<defs>
<clipPath id="clip0_11506_4517">
<rect x="-99" y="-218" width="573" height="675" rx="20" fill="white"/>
</clipPath>
</defs>
</svg>
